<svg viewBox="0 0 200 200" xmlns="http://www.w3.org/2000/svg">
  <path fill="#000000" d="M31.6,-60.3C37.6,-51.3,36.8,-36.1,39.4,-25C42,-13.9,48,-6.9,52.8,2.7C57.5,12.4,61,24.8,55.7,31.2C50.4,37.7,36.4,38.2,25.7,47.4C14.9,56.5,7.5,74.1,1.6,71.4C-4.3,68.7,-8.6,45.5,-21.4,37.6C-34.1,29.6,-55.4,36.9,-60,33.2C-64.7,29.5,-52.7,14.7,-48.6,2.3C-44.6,-10.1,-48.4,-20.1,-47.5,-30.4C-46.7,-40.6,-41.1,-51.1,-32.4,-58.5C-23.7,-66,-11.8,-70.3,0.5,-71.2C12.8,-72,25.6,-69.3,31.6,-60.3Z" transform="translate(100 100)" />
</svg>